<svg width="219.0724609375px" height="57.635009765625px" xmlns="http://www.w3.org/2000/svg" viewBox="90.46376953125 21.1824951171875 319.0724609375 107.635009765625" style="background: rgba(0, 0, 0, 0);" preserveAspectRatio="xMidYMid"><defs><filter id="editing-hole" x="-100%" y="-100%" width="300%" height="300%"><feFlood flood-color="#000" result="black"></feFlood><feMorphology operator="dilate" radius="2" in="SourceGraphic" result="erode"></feMorphology><feGaussianBlur in="erode" stdDeviation="4" result="blur"></feGaussianBlur><feOffset in="blur" dx="2" dy="2" result="offset"></feOffset><feComposite operator="atop" in="offset" in2="black" result="merge"></feComposite><feComposite operator="in" in="merge" in2="SourceGraphic" result="inner-shadow"></feComposite></filter></defs><g filter="url(#editing-hole)"><g transform="translate(137.93499946594238, 95.80000114440918)"><path d="M16.70-3.84L25.22-4.10L25.60-3.71L25.15 0L5.76 0L5.95-9.60L5.76-31.87L25.28-31.87L25.60-31.49L25.22-27.78L17.15-28.03L10.50-27.97L10.43-18.30L16.77-18.24L22.34-18.43L22.66-17.98L22.27-14.21L16.38-14.40L10.43-14.34L10.37-9.98L10.43-3.90L16.70-3.84ZM57.47-41.02L57.86-40.51L57.47-36.54L50.30-36.93L46.14-36.93L45.95-12.80L46.14 0L40.96 0L41.34-12.35L41.02-36.93L36.86-36.93L29.57-36.54L29.25-37.06L29.63-41.02L57.47-41.02ZM75.07-31.87L86.27 0L81.47 0L80.70-3.46L79.04-8.19L71.42-8.26L64.64-8.19L62.91-3.71L62.02 0L57.28 0L69.57-31.87L75.07-31.87ZM71.81-12.03L77.70-12.10L72.38-27.20L72-27.20L66.18-12.10L71.81-12.03ZM103.62-32.19L103.62-32.19Q107.52-32.19 111.42-30.66L111.42-30.66L110.59-25.92L109.82-25.73L109.82-25.73Q108.03-27.14 106.43-27.81L106.43-27.81L106.43-27.81Q104.83-28.48 103.10-28.48L103.10-28.48L103.10-28.48Q100.35-28.48 98.75-27.04L98.75-27.04L98.75-27.04Q97.15-25.60 97.15-23.74L97.15-23.74L97.15-23.74Q97.15-21.89 98.72-20.74L98.72-20.74L98.72-20.74Q100.29-19.58 103.55-18.18L103.55-18.18L103.55-18.18Q106.43-16.90 108.13-15.87L108.13-15.87L108.13-15.87Q109.82-14.85 111.07-13.15L111.07-13.15L111.07-13.15Q112.32-11.46 112.32-9.02L112.32-9.02L112.32-9.02Q112.32-6.53 110.98-4.38L110.98-4.38L110.98-4.38Q109.63-2.24 107.04-0.93L107.04-0.93L107.04-0.93Q104.45 0.38 100.86 0.38L100.86 0.38L100.86 0.38Q98.62 0.38 96.16-0.16L96.16-0.16L96.16-0.16Q93.70-0.70 91.58-1.79L91.58-1.79L92.16-6.85L92.80-7.10L92.80-7.10Q94.59-5.31 96.99-4.32L96.99-4.32L96.99-4.32Q99.39-3.33 101.44-3.33L101.44-3.33L101.44-3.33Q104.13-3.33 105.86-4.77L105.86-4.77L105.86-4.77Q107.58-6.21 107.58-8.26L107.58-8.26L107.58-8.26Q107.58-10.18 106.02-11.33L106.02-11.33L106.02-11.33Q104.45-12.48 101.12-14.02L101.12-14.02L101.12-14.02Q98.37-15.23 96.61-16.26L96.61-16.26L96.61-16.26Q94.85-17.28 93.63-18.98L93.63-18.98L93.63-18.98Q92.42-20.67 92.42-23.10L92.42-23.10L92.42-23.10Q92.42-25.66 93.79-27.71L93.79-27.71L93.79-27.71Q95.17-29.76 97.70-30.98L97.70-30.98L97.70-30.98Q100.22-32.19 103.62-32.19L103.62-32.19ZM145.34-31.94L131.78-16.96L131.78-16.96Q138.56-8.64 146.18-1.09L146.18-1.09L146.05-0.38L146.05-0.38Q144.06 0.26 141.44 0.58L141.44 0.58L140.67 0.26L140.67 0.26Q132.48-8.96 126.53-16.64L126.53-16.64L126.53-17.02L137.54-29.06L139.65-31.87L145.34-31.94ZM126.21-31.87L126.02-9.98L126.14 0L121.41 0L121.60-9.60L121.41-31.87L126.21-31.87ZM157.57-31.87L157.38-9.98L157.50 0L152.77 0L152.96-9.60L152.77-31.87L157.57-31.87ZM179.58-28.03L173.76-27.97L173.70-17.47L179.20-17.41L184.83-17.60L185.15-17.15L184.83-13.50L178.75-13.57L173.63-13.50L173.63-9.98L173.76 0L169.02 0L169.15-9.60L169.02-31.87L187.58-31.87L187.84-31.49L187.46-27.78L179.58-28.03ZM206.53-11.14L206.46-9.15L206.66 0L201.86 0L202.11-9.15L202.05-11.14L191.23-31.87L196.48-31.87L197.12-30.02L204.29-16.32L204.61-16.32L212.42-29.82L213.25-31.87L218.37-31.87L206.53-11.14Z" fill="#ccc"></path></g></g><style>text {
  font-size: 64px;
  font-family: Arial Black;
  dominant-baseline: central;
  text-anchor: middle;
}</style></svg>